<?xml version="1.0" encoding="UTF-8"?>
<svg id="Capa_1" data-name="Capa 1" xmlns="http://www.w3.org/2000/svg" viewBox="0 0 5.81 10.19">
  <defs>
    <style>
      .cls-1 {
        fill-rule: evenodd;
      }
    </style>
  </defs>
  <path class="cls-1" d="M1.08,0H.26C.12,0,0,.11,0,.26V6.66c0,.14,.11,.26,.26,.26h.82c.14,0,.26-.11,.26-.26V.26c0-.14-.11-.26-.26-.26"/>
  <path class="cls-1" d="M5.33,10.07l.44-.72c.08-.12,.04-.29-.08-.37L.84,5.74c-.12-.08-.28-.04-.35,.08L.04,6.54c-.08,.12-.04,.29,.08,.37l4.86,3.24c.12,.08,.28,.04,.35-.08"/>
</svg>