<?xml version="1.0" encoding="UTF-8"?>
<svg id="Capa_1" data-name="Capa 1" xmlns="http://www.w3.org/2000/svg" viewBox="0 0 8.36 6.58">
  <defs>
    <style>
      .cls-1 {
        fill: #fff;
        fill-rule: evenodd;
      }
    </style>
  </defs>
  <path class="cls-1" d="M8.36,.43v.4c0,.24-.23,.43-.51,.43H.51c-.28,0-.51-.19-.51-.43V.43C0,.19,.23,0,.51,0,4.44,0,3.92,0,7.85,0,8.13,0,8.36,.19,8.36,.43"/>
  <path class="cls-1" d="M5.98,4.92v.02s0,.03,0,.03v1.61s1.13-.73,1.22-.79c.06-.04,.38-.24,.41-.27l-.55-.36-.06-.04c-.1-.06-.95-.62-1.01-.65v.45Z"/>
  <path class="cls-1" d="M8.36,2.91v.4c0,.24-.23,.43-.51,.43H.51c-.28,0-.51-.19-.51-.43v-.4c0-.24,.23-.43,.51-.43H7.85c.28,0,.51,.19,.51,.43"/>
  <path class="cls-1" d="M4.76,5.38v.4c0,.24-.13,.43-.29,.43H.29c-.16,0-.29-.19-.29-.43v-.4c0-.24,.13-.43,.29-.43H4.47c.16,0,.29,.19,.29,.43"/>
</svg>