<?xml version="1.0" encoding="UTF-8"?>
<svg id="Capa_1" data-name="Capa 1" xmlns="http://www.w3.org/2000/svg" viewBox="0 0 11.69 11.73">
  <defs>
    <style>
      .cls-1, .cls-2 {
        fill: gray;
      }

      .cls-2 {
        fill-rule: evenodd;
      }
    </style>
  </defs>
  <path class="cls-1" d="M9.52,2.19c-.94-.94-2.24-1.52-3.67-1.52s-2.73,.58-3.67,1.52c-.94,.94-1.52,2.24-1.52,3.67s.58,2.73,1.52,3.67c.94,.94,2.24,1.52,3.67,1.52s2.73-.58,3.67-1.52c.94-.94,1.52-2.24,1.52-3.67s-.58-2.73-1.52-3.67M5.85,0C7.46,0,8.93,.66,9.98,1.72c1.06,1.06,1.71,2.52,1.71,4.14s-.66,3.08-1.71,4.14c-1.06,1.06-2.52,1.71-4.14,1.71s-3.08-.66-4.14-1.71C.65,8.94,0,7.48,0,5.86S.65,2.78,1.71,1.72C2.77,.66,4.23,0,5.85,0Z"/>
  <path class="cls-2" d="M8.83,5.68h0c0,.19-.15,.34-.34,.34H3.23c-.19,0-.34-.15-.34-.34s.15-.34,.34-.34h5.26c.19,0,.34,.15,.34,.34"/>
  <path class="cls-1" d="M8.64,5.82s.06-.09,.06-.15-.02-.11-.06-.15c-.04-.04-.09-.06-.15-.06H3.23c-.06,0-.11,.02-.15,.06-.04,.04-.06,.09-.06,.15s.02,.11,.06,.15c.04,.04,.09,.06,.15,.06h5.26c.06,0,.11-.02,.15-.06m.33-.15c0,.13-.05,.25-.14,.33-.09,.09-.2,.14-.33,.14H3.23c-.13,0-.25-.05-.33-.14-.09-.09-.14-.2-.14-.33s.05-.25,.14-.33c.09-.09,.2-.14,.33-.14h5.26c.13,0,.25,.05,.33,.14,.09,.09,.14,.2,.14,.33Z"/>
</svg>