<?xml version="1.0" encoding="UTF-8"?>
<svg id="Capa_1" data-name="Capa 1" xmlns="http://www.w3.org/2000/svg" viewBox="0 0 19.05 14.97">
  <defs>
    <style>
      .cls-1, .cls-2 {
        fill: gray;
      }

      .cls-2 {
        fill-rule: evenodd;
      }
    </style>
  </defs>
  <path class="cls-2" d="M15.62,13.78c-.4,.62-.25,1.12,.57,1.12,.62,0,1.43,.09,1.93-.16,.4-.21,.84-.67,.92-1.22,.04-.32,.02-.72,.02-1.04,0-.57-.03-.52-.22-.87-.2-.04-.32-.14-.59-.06-.56,.17-.39,1.07-.39,1.72,0,.77-.75,.27-2.24,.51"/>
  <path class="cls-2" d="M15.77,.13c-.06,.09-.14,.23-.22,.32-.05,.86,.37,.8,1.14,.8,.87,0,1.25-.23,1.17,.74v.84c.02,.29,.02,.47,.2,.61,.2,.16,.4,.15,.66,.07,.36-.23,.33-.42,.33-.93,0-.45,0-.85-.03-1.3-.19-.35-.15-.38-.41-.68-.21-.24-.34-.27-.6-.46-.46-.11-.63-.1-1.13-.1-.2,0-.4,0-.6,0-.21,0-.38,.05-.52,.08"/>
  <path class="cls-2" d="M3,14.93c.18-.18,.47-.17,.47-.62,0-.5-.26-.43-.42-.62-.33,.04-.68,.02-1.01,.02-.31,0-.71,.07-.8-.19-.14-.41,.12-1.27-.13-1.85-.12-.13-.1-.08-.25-.19-.79-.1-.84,.28-.84,.99,0,.63-.07,1.12,.22,1.6,.75,1.23,1.91,.72,2.76,.86"/>
  <path class="cls-2" d="M.05,1.29C.02,2.18-.22,3.64,.74,3.48c.97-.16,.14-1.8,.64-2.2,.35-.07,1.02-.01,1.41-.02,.61-.02,.61-.3,.67-.82-.38-.34-.22-.39-.92-.38-.36,0-.89-.03-1.21,.03C.47,.26,.25,.97,.05,1.29"/>
  <path class="cls-1" d="M14.15,3.09H4.6c-.25,0-.48,.1-.65,.27-.17,.17-.27,.4-.27,.65v6.78c0,.25,.1,.48,.27,.65,.17,.17,.4,.27,.65,.27H14.15c.25,0,.48-.1,.65-.27,.17-.17,.27-.4,.27-.65V4.01c0-.25-.1-.48-.27-.65-.17-.17-.4-.27-.65-.27M4.6,2.04H14.15c.54,0,1.03,.22,1.39,.58,.36,.36,.58,.85,.58,1.39v6.78c0,.54-.22,1.03-.58,1.39-.36,.36-.85,.58-1.39,.58H4.6c-.54,0-1.03-.22-1.39-.58h0c-.36-.36-.58-.85-.58-1.39V4.01c0-.54,.22-1.03,.58-1.39h0c.36-.36,.85-.58,1.39-.58Z"/>
</svg>