<?xml version="1.0" encoding="UTF-8"?>
<svg id="Capa_1" data-name="Capa 1" xmlns="http://www.w3.org/2000/svg" viewBox="0 0 14.72 15.08">
  <defs>
    <style>
      .cls-1 {
        fill: gray;
        fill-rule: evenodd;
      }
    </style>
  </defs>
  <path class="cls-1" d="M12.93,12.61c.29,.12,.88,.67,1.23,.57,.27-.08,.31-.29,.32-.61,.01-.51,.14-3.4,.09-3.58-.06-.22-.34-.38-.61-.25-.42,.19-2.51,1.34-3,1.61-.21,.12-.44,.17-.45,.49,0,.32,.22,.39,.42,.51,.19,.12,.39,.23,.56,.36-.13,.28-.76,.69-1.16,.92-3.3,1.83-7.17,.29-8.36-3.09-.17-.49-.19-1.57-1.15-1.42-.33,.05-.6,.31-.67,.63-.15,.69,.68,2.35,.99,2.86,.32,.53,.79,1.08,1.17,1.42l.34,.31c.83,.72,1.92,1.25,3.02,1.52,2.21,.54,4.38,.02,6.14-1.24,.34-.25,.51-.35,.78-.66l.32-.35Z"/>
  <path class="cls-1" d="M1.67,2.71c-.56-.28-1.14-.93-1.49-.42-.12,.17-.1,1.04-.11,1.27,0,.28-.1,2.52-.07,2.69,.04,.23,.29,.42,.57,.33l1.19-.63c.4-.2,.79-.44,1.21-.65,.2-.1,.42-.22,.6-.32,.21-.11,.45-.18,.48-.46,.07-.53-.74-.65-.95-.93,.2-.31,.96-.91,1.42-1.16,3.31-1.82,7.16-.27,8.35,3.12,.16,.45,.2,1.57,1.17,1.39,.32-.06,.59-.32,.65-.65,.13-.69-.7-2.34-1.01-2.85-.45-.73-1.18-1.5-1.88-2.01-.25-.18-.5-.35-.79-.51C8.37-.5,5.41-.25,3.01,1.47c-.59,.42-1.32,1.24-1.34,1.25"/>
</svg>