<?xml version="1.0" encoding="UTF-8"?>
<svg id="Capa_1" data-name="Capa 1" xmlns="http://www.w3.org/2000/svg" viewBox="0 0 11.45 13.29">
  <defs>
    <style>
      .cls-1, .cls-2 {
        fill: #fff;
      }

      .cls-2 {
        fill-rule: evenodd;
      }
    </style>
  </defs>
  <path class="cls-2" d="M2.92,5.22h.89c.12,0,.22,.08,.22,.19v6.56c0,.1-.1,.19-.22,.19h-.89c-.12,0-.22-.08-.22-.19V5.41c0-.1,.1-.19,.22-.19m2.36,0h.89c.12,0,.22,.08,.22,.19v6.56c0,.1-.1,.19-.22,.19h-.89c-.12,0-.22-.08-.22-.19V5.41c0-.1,.1-.19,.22-.19Zm2.49,0h.89c.12,0,.22,.08,.22,.19v6.56c0,.1-.1,.19-.22,.19h-.89c-.12,0-.22-.08-.22-.19V5.41c0-.1,.1-.19,.22-.19ZM1.29,12.45c0,.38,.2,.62,.5,.75,.29,.13,.93,.08,1.31,.08h5.59c.48,0,.86,.04,1.16-.19,.32-.25,.31-.49,.31-.93,0-4.17,0-4.64,0-7.92H1.3c0,3.38,0,3.92,0,8.21Z"/>
  <path class="cls-2" d="M4.22,2.24h3.01c.2,0,.36-.2,.36-.44v-.77c0-.24-.16-.44-.36-.44h-3.01c-.2,0-.36,.2-.36,.44v.77c0,.24,.16,.44,.36,.44m-.29,.91h3.6c.38,0,.69-.38,.69-.84V.84c0-.46-.31-.84-.69-.84H3.92c-.38,0-.69,.38-.69,.84v1.47c0,.46,.31,.84,.69,.84Z"/>
  <path class="cls-1" d="M.4,3.2C.18,3.2,0,2.94,0,2.62c0-.32,.19-.58,.41-.58l10.63,.04c.22,0,.4,.26,.4,.58,0,.32-.19,.58-.41,.58l-10.63-.04Z"/>
</svg>