<?xml version="1.0" encoding="UTF-8"?>
<svg id="Capa_1" data-name="Capa 1" xmlns="http://www.w3.org/2000/svg" viewBox="0 0 16.31 14.88">
  <defs>
    <style>
      .cls-1 {
        fill-rule: evenodd;
      }

      .cls-1, .cls-2 {
        fill: lime;
      }
    </style>
  </defs>
  <path class="cls-1" d="M8.52,.84c-.35,.1-.63,.45-.82,.64l-2.54,2.54c-.07,.08-.09,.13-.23,.14-.11,0-.25,0-.4,0h-.28c-.41,0-.87,0-1.16,0-.48,0,.77,0,.28,0-.11,0-.2,0-.28,0h-.3c-3.72,0-3.72,7.46,0,7.46h2.31c.47,.49,2.86,2.9,3.11,3.08,.38,.28,.78,.23,.96-.17,.14-.3,.09-.99,.09-1.36V2.99c0-.47,.02-.99,0-1.45-.02-.42-.27-.83-.74-.7"/>
  <path class="cls-1" d="M10.93,3.14c.07,.06,2.47,.45,3.46,2.9,.47,1.17,.48,2.41,.02,3.58-.2,.49-.52,1.03-.81,1.34-.42,.45-.57,.61-1.14,.98-.19,.12-.47,.26-.71,.36-.13,.05-.77,.23-.81,.26l.08,.42c.58-.07,1.25-.41,1.68-.66,.93-.54,1.71-1.52,2.12-2.51,1-2.43-.02-5.13-2.11-6.42-.39-.24-1.15-.6-1.69-.67l-.08,.42Z"/>
  <path class="cls-2" d="M10.95,3.49c-.1-.03-.16-.04-.22-.09l-.17-.13,.18-.93,.31,.03c.27,.03,.57,.12,.87,.24,.37,.14,.72,.33,.96,.48,1.13,.7,1.97,1.79,2.38,3.03,.39,1.2,.39,2.54-.14,3.81-.22,.54-.55,1.07-.94,1.54-.38,.45-.83,.84-1.32,1.13-.25,.15-.59,.33-.95,.47-.28,.11-.57,.2-.85,.23l-.31,.04-.19-.95,.19-.12c.06-.04,.26-.1,.48-.17,.17-.05,.34-.1,.39-.12,.11-.04,.23-.1,.35-.16,.12-.06,.22-.12,.31-.17,.52-.33,.67-.49,1.05-.89l.03-.03c.13-.14,.27-.33,.4-.55,.13-.22,.25-.46,.35-.69,.22-.54,.32-1.1,.32-1.65,0-.56-.12-1.13-.34-1.67-.81-2.03-2.67-2.55-3.13-2.67"/>
  <path class="cls-1" d="M10.6,5.14c.12,.1,.71,.2,1.32,.97,.8,1.01,.77,2.39,.01,3.46-.5,.7-1.16,.87-1.32,.98l.14,.41c.57-.13,1.21-.68,1.54-1.11,.9-1.18,.9-2.82,0-3.99-.33-.44-1.01-1.02-1.55-1.13l-.14,.41Z"/>
  <path class="cls-2" d="M10.75,5.27c-.08-.04-.14-.06-.17-.09l-.03-.02,.16-.48h.04c.25,.06,.54,.21,.8,.4,.31,.23,.6,.51,.78,.75,.45,.6,.68,1.31,.68,2.03,0,.71-.23,1.43-.69,2.03-.18,.24-.46,.51-.76,.73-.26,.19-.54,.34-.81,.4h-.04s-.16-.48-.16-.48l.03-.02s.11-.06,.19-.1c.27-.12,.75-.34,1.12-.87,.38-.53,.57-1.14,.57-1.74,0-.59-.19-1.17-.58-1.66-.46-.58-.9-.77-1.14-.87m-.08-.15s.07,.03,.12,.06c.25,.11,.7,.31,1.17,.9,.4,.51,.6,1.11,.6,1.72,0,.62-.2,1.25-.59,1.8-.39,.55-.88,.78-1.16,.91-.06,.03-.11,.05-.14,.07l.11,.33c.24-.06,.49-.2,.72-.37,.3-.21,.57-.48,.74-.71,.44-.58,.66-1.27,.66-1.96,0-.69-.22-1.39-.66-1.97-.18-.23-.46-.51-.76-.73-.24-.17-.49-.31-.72-.37l-.11,.33Z"/>
  <path class="cls-1" d="M2.99,.27h0c.44-.4,1.14-.36,1.54,.08l11.5,12.79c.4,.44,.36,1.14-.08,1.54-.44,.4-1.14,.36-1.54-.08L2.91,1.8c-.4-.44-.36-1.14,.08-1.54"/>
</svg>