<?xml version="1.0" encoding="UTF-8"?>
<svg id="Capa_1" data-name="Capa 1" xmlns="http://www.w3.org/2000/svg" width="27.24" height="27" viewBox="0 0 27.24 27">
  <defs>
    <style>
      .cls-1, .cls-2 {
        fill: gray;
      }

      .cls-2 {
        fill-rule: evenodd;
      }
    </style>
  </defs>
  <rect class="cls-1" x="13.09" y="12.27" width="1.45" height="6.3"/>
  <rect class="cls-1" x="10.53" y="12.27" width="1.45" height="6.3"/>
  <rect class="cls-1" x="15.66" y="12.27" width="1.45" height="6.3"/>
  <path class="cls-2" d="M13.63,0C6.1,0,0,6.04,0,13.5s6.1,13.5,13.63,13.5,13.63-6.04,13.63-13.5S21.16,0,13.63,0Zm5.57,19.51c0,.46-.37,.83-.83,.83H9.26c-.46,0-.83-.37-.83-.83V11.34c0-.46,.37-.83,.83-.83h9.11c.46,0,.83,.37,.83,.83v8.17Zm.64-10.41c0,.44-.36,.81-.81,.81H8.22c-.44,0-.81-.36-.81-.81v-.47c0-.44,.36-.81,.81-.81h3.28c.03-.08,.06-.18,.1-.26,.05-.1,.09-.17,.16-.26,.12-.16,.27-.28,.45-.39,.5-.3,.85-.25,1.52-.25s1.04-.04,1.52,.25c.21,.12,.33,.23,.46,.41,.2,.26,.19,.37,.25,.51h3.07c.44,0,.81,.36,.81,.81v.47Z"/>
  <path class="cls-2" d="M15.15,7.67s-.08-.1-.11-.15c-.11-.17-.27-.3-.45-.37-.23-.09-.7-.05-.97-.05-.33,0-.63-.05-.91,.12-.15,.09-.41,.36-.46,.61h2.93c-.01-.05-.03-.1-.05-.16Z"/>
</svg>