<?xml version="1.0" encoding="UTF-8"?>
<svg id="Capa_1" data-name="Capa 1" xmlns="http://www.w3.org/2000/svg" width="18.68" height="14.32" viewBox="0 0 18.68 14.32">
  <defs>
    <style>
      .cls-1 {
        stroke-width: 1.13px;
      }

      .cls-1, .cls-2, .cls-3 {
        fill: none;
        stroke: gray;
      }

      .cls-1, .cls-3 {
        stroke-linecap: round;
        stroke-linejoin: round;
      }

      .cls-2 {
        stroke-miterlimit: 22.93;
        stroke-width: .57px;
      }

      .cls-3 {
        stroke-width: .85px;
      }

      .cls-4, .cls-5 {
        fill: gray;
      }

      .cls-5 {
        fill-rule: evenodd;
      }
    </style>
  </defs>
  <path class="cls-3" d="M17.5,3.86c-.21-1.36-1.42-1.39-3.1-1.39h-5.57c-.68,0-1.19,.13-1.58-.39-.37-.5,.14-.63-.39-1.19-.39-.42-4.91-.33-5.42-.2C.18,1.01,.55,11.88,.74,13.13"/>
  <path class="cls-4" d="M9,8.02v.03h0v2.03c.53-.32,1.22-.73,1.52-.91,.01,0,.15-.09,.15-.09l.06-.03-.35-.21-.13-.07-.03-.02c-.09-.05-.31-.18-.58-.34l-.65-.39Zm-1.07-.04c-.01-.27,0-.57,0-.84,0-.08,0-.16,.04-.24,.11-.27,.42-.41,.7-.29,.11,.05,.93,.54,1.53,.89,.26,.16,.48,.28,.56,.33,.43,.23,.86,.5,1.29,.75h0s.04,.03,.06,.04c.23,.18,.27,.52,.08,.75-.1,.13-.57,.4-.84,.55l-.13,.08h0s-.15,.09-.15,.09c-.48,.28-1.84,1.1-2.29,1.35-.09,.07-.2,.11-.32,.11-.3,0-.54-.24-.54-.54v-2.96h0v-.08Z"/>
  <path class="cls-2" d="M9,8.02v.03h0v2.03c.53-.32,1.22-.73,1.52-.91,.01,0,.15-.09,.15-.09l.06-.03-.35-.21-.13-.07-.03-.02c-.09-.05-.31-.18-.58-.34l-.65-.39Zm-1.07-.04c-.01-.27,0-.57,0-.84,0-.08,0-.16,.04-.24,.11-.27,.42-.41,.7-.29,.11,.05,.93,.54,1.53,.89,.26,.16,.48,.28,.56,.33,.43,.23,.86,.5,1.29,.75h0s.04,.03,.06,.04c.23,.18,.27,.52,.08,.75-.1,.13-.57,.4-.84,.55l-.13,.08h0s-.15,.09-.15,.09c-.48,.28-1.84,1.1-2.29,1.35-.09,.07-.2,.11-.32,.11-.3,0-.54-.24-.54-.54v-2.96h0v-.08Z"/>
  <path class="cls-5" d="M8.46,7.93v.03s0,.05,0,.05v2.99c.09-.03,2.3-1.35,2.48-1.47,.13-.08,.78-.44,.83-.5l-1.13-.67-.13-.07c-.19-.11-1.93-1.16-2.05-1.21v.83Z"/>
  <path class="cls-2" d="M8.46,7.93v.03s0,.05,0,.05v2.99c.09-.03,2.3-1.35,2.48-1.47,.13-.08,.78-.44,.83-.5l-1.13-.67-.13-.07c-.19-.11-1.93-1.16-2.05-1.21v.83Z"/>
  <path class="cls-1" d="M1.05,13.3c.24,.22-.03,.12,.26,.28,.13,.07,.29,.07,.44,.07,4.65,.06,9.47,.04,14.13-.03,.91,.07,.9-.88,.98-1.33l1.01-6.37c.3-1.79,.35-1.51-2.67-1.51H4.28c-.69,0-1.52-.14-1.85,.39-.17,.28-1.34,7.72-1.38,8.5Z"/>
</svg>