<?xml version="1.0" encoding="UTF-8"?>
<svg id="Capa_1" data-name="Capa 1" xmlns="http://www.w3.org/2000/svg" width="27.06" height="27" viewBox="0 0 27.06 27">
  <defs>
    <style>
      .cls-1 {
        fill: gray;
      }

      .cls-2 {
        fill: #fefefe;
        fill-rule: evenodd;
      }
    </style>
  </defs>
  <path class="cls-1" d="M21.34,5.68c-2-2-4.76-3.24-7.82-3.24s-5.82,1.24-7.82,3.24c-2,2-3.24,4.76-3.24,7.82s1.24,5.82,3.24,7.82c2,2,4.76,3.24,7.82,3.24s5.82-1.24,7.82-3.24c2-2,3.24-4.76,3.24-7.82s-1.24-5.82-3.24-7.82M13.53,0c3.73,0,7.1,1.51,9.54,3.95,2.44,2.44,3.95,5.82,3.95,9.55s-1.51,7.1-3.95,9.55c-2.44,2.44-5.82,3.95-9.54,3.95s-7.1-1.51-9.55-3.95C1.54,20.6,.03,17.23,.03,13.5S1.54,6.4,3.98,3.95C6.42,1.51,9.8,0,13.53,0Z"/>
  <path class="cls-2" d="M10.81,9.47l6.62,6.91c.32,.33,.31,.86-.02,1.18-.33,.32-.86,.31-1.18-.03l-6.62-6.91c-.32-.33-.31-.86,.02-1.18,.33-.32,.86-.31,1.18,.02"/>
  <path class="cls-2" d="M17.56,10.79l-6.91,6.62c-.33,.32-.86,.31-1.18-.02-.32-.33-.31-.86,.03-1.18l6.91-6.62c.33-.32,.86-.31,1.18,.02,.32,.33,.31,.86-.02,1.18"/>
</svg>