<?xml version="1.0" encoding="UTF-8"?>
<svg id="Capa_1" data-name="Capa 1" xmlns="http://www.w3.org/2000/svg" width="27.24" height="27.12" viewBox="0 0 27.24 27.12">
  <defs>
    <style>
      .cls-1, .cls-2 {
        fill: gray;
      }

      .cls-2 {
        fill-rule: evenodd;
      }
    </style>
  </defs>
  <path class="cls-1" d="M21.47,5.71c-2.01-2.01-4.78-3.25-7.85-3.25s-5.84,1.24-7.85,3.25c-2.01,2.01-3.25,4.79-3.25,7.85s1.24,5.84,3.25,7.85c2.01,2.01,4.79,3.25,7.85,3.25s5.84-1.24,7.85-3.25c2.01-2.01,3.25-4.78,3.25-7.85s-1.24-5.84-3.25-7.85M13.62,0c3.74,0,7.13,1.52,9.59,3.97,2.45,2.45,3.97,5.84,3.97,9.59s-1.52,7.13-3.97,9.59c-2.45,2.45-5.84,3.97-9.59,3.97s-7.13-1.52-9.59-3.97C1.58,20.69,.06,17.3,.06,13.56S1.58,6.43,4.03,3.97C6.49,1.52,9.88,0,13.62,0Z"/>
  <path class="cls-2" d="M10.9,9.51l6.65,6.94c.32,.33,.31,.87-.02,1.19-.33,.32-.87,.31-1.18-.03l-6.65-6.94c-.32-.33-.31-.87,.02-1.19,.33-.32,.87-.31,1.18,.02"/>
  <path class="cls-2" d="M17.67,10.84l-6.94,6.65c-.33,.32-.87,.31-1.19-.02-.32-.33-.31-.87,.03-1.18l6.94-6.65c.33-.32,.87-.31,1.19,.02,.32,.33,.31,.87-.02,1.18"/>
</svg>