<?xml version="1.0" encoding="UTF-8"?>
<svg id="Capa_1" data-name="Capa 1" xmlns="http://www.w3.org/2000/svg" width="27.24" height="18.84" viewBox="0 0 27.24 18.84">
  <defs>
    <style>
      .cls-1, .cls-2 {
        fill: #4caf50;
      }

      .cls-2 {
        fill-rule: evenodd;
      }
    </style>
  </defs>
  <path class="cls-2" d="M14.92,17.14l-.64,.77c-.38,.46-1.06,.39-1.51-.16C6.47,10.12,7.32,11.15,1.01,3.52c-.45-.55-.51-1.37-.13-1.82l.64-.77c.38-.46,1.06-.38,1.51,.16,6.31,7.63,5.46,6.61,11.77,14.23,.45,.55,.51,1.36,.13,1.82"/>
  <path class="cls-1" d="M13.8,17.51l.64-.77c.08-.1,.11-.26,.1-.43-.01-.21-.09-.42-.23-.59L2.43,1.38c-.09-.07-.18-.11-.26-.12-.29,.08-.59,.58-.8,.84-.08,.1-.11,.26-.1,.43,.02,.21,.1,.42,.23,.59l11.88,14.34c.09,.08,.19,.12,.26,.12,.05,0,.1,0,.13-.04l.03-.03Zm1.61,.03l-.64,.77-.2,.2c-.29,.24-.66,.35-1.02,.33-.33-.02-.68-.16-.97-.41l-.28-.28L.53,3.92C.22,3.55,.04,3.07,0,2.62c-.03-.49,.09-.97,.39-1.32l.64-.77,.2-.2C1.53,.09,1.89-.02,2.25,0c.33,.02,.67,.16,.97,.41l.28,.28L15.27,14.92c.31,.37,.49,.85,.52,1.3,.03,.48-.09,.97-.39,1.33Z"/>
  <path class="cls-2" d="M12.32,17.14l.64,.77c.38,.46,1.06,.39,1.51-.16,6.31-7.63,5.46-6.6,11.77-14.23,.45-.55,.51-1.37,.13-1.82l-.64-.77c-.38-.46-1.06-.38-1.51,.16-6.31,7.63-5.46,6.61-11.77,14.23-.45,.55-.51,1.36-.13,1.82"/>
  <path class="cls-1" d="M12.47,18.31l-.64-.77c-.29-.36-.42-.84-.39-1.33,.03-.45,.21-.92,.52-1.3L23.73,.69l.28-.28c.3-.24,.64-.38,.98-.41,.37-.02,.73,.08,1.02,.33l.2,.2,.64,.77c.3,.36,.42,.84,.39,1.33-.03,.45-.21,.92-.52,1.3l-11.77,14.23-.28,.28c-.3,.25-.64,.38-.97,.41-.37,.02-.73-.08-1.02-.33l-.2-.2Zm.33-1.57l.66,.8s.09,.05,.14,.04c.08,0,.17-.05,.26-.12l.11-.11L25.74,3.12c.14-.17,.22-.38,.23-.58,.01-.18-.02-.34-.1-.43l-.68-.81-.13-.04c-.08,0-.18,.05-.26,.12L12.94,15.72c-.14,.17-.22,.38-.23,.58-.01,.18,.02,.34,.1,.43Z"/>
</svg>