<?xml version="1.0" encoding="UTF-8"?>
<svg id="Capa_1" data-name="Capa 1" xmlns="http://www.w3.org/2000/svg" width="11.75" height="27.43" viewBox="0 0 11.75 27.43">
  <defs>
    <style>
      .cls-1 {
        fill: none;
        stroke: gray;
        stroke-miterlimit: 22.93;
        stroke-width: .57px;
      }

      .cls-2 {
        fill: gray;
        fill-rule: evenodd;
      }
    </style>
  </defs>
  <path class="cls-2" d="M1.25,.49L11.34,13.38c.18,.23,.14,.57-.09,.75-.23,.18-.57,.14-.75-.09L.41,1.14c-.18-.23-.14-.57,.09-.75,.23-.18,.57-.14,.75,.09Z"/>
  <path class="cls-1" d="M1.25,.49L11.34,13.38c.18,.23,.14,.57-.09,.75-.23,.18-.57,.14-.75-.09L.41,1.14c-.18-.23-.14-.57,.09-.75,.23-.18,.57-.14,.75,.09Z"/>
  <path class="cls-2" d="M1.25,26.94L11.34,14.05c.18-.23,.14-.57-.09-.75-.23-.18-.57-.14-.75,.09L.41,26.29c-.18,.23-.14,.57,.09,.75,.23,.18,.57,.14,.75-.09Z"/>
  <path class="cls-1" d="M1.25,26.94L11.34,14.05c.18-.23,.14-.57-.09-.75-.23-.18-.57-.14-.75,.09L.41,26.29c-.18,.23-.14,.57,.09,.75,.23,.18,.57,.14,.75-.09Z"/>
</svg>