<?xml version="1.0" encoding="UTF-8"?>
<svg id="Capa_1" data-name="Capa 1" xmlns="http://www.w3.org/2000/svg" viewBox="0 0 7.23 11.43">
  <defs>
    <style>
      .cls-1 {
        fill: #fefefe;
        fill-rule: evenodd;
      }
    </style>
  </defs>
  <path class="cls-1" d="M6.97,5.05L2.27,.27c-.35-.36-.93-.36-1.28-.01L.27,.96c-.36,.35-.36,.93-.01,1.28L4.96,7.03c.35,.36,.93,.36,1.28,.01l.72-.7c.36-.35,.36-.93,.01-1.28"/>
  <path class="cls-1" d="M6.97,6.38L2.27,11.16c-.35,.36-.93,.36-1.28,.01l-.72-.7c-.36-.35-.36-.93-.01-1.28L4.96,4.41c.35-.36,.93-.36,1.28-.01l.72,.7c.36,.35,.36,.93,.01,1.28"/>
</svg>