<?xml version="1.0" encoding="UTF-8"?>
<svg id="Capa_1" data-name="Capa 1" xmlns="http://www.w3.org/2000/svg" viewBox="0 0 6.24 5.72">
  <defs>
    <style>
      .cls-1, .cls-2, .cls-3 {
        fill: #fff;
      }

      .cls-2 {
        fill-rule: evenodd;
      }

      .cls-3 {
        stroke: #fff;
        stroke-linecap: round;
        stroke-linejoin: round;
        stroke-width: .22px;
      }
    </style>
  </defs>
  <path class="cls-2" d="M6.15,.45v.33c0,.2-.17,.36-.37,.36H.46c-.2,0-.37-.16-.37-.36V.45c0-.2,.17-.36,.37-.36,2.85,0,2.47,0,5.32,0,.2,0,.37,.16,.37,.36"/>
  <path class="cls-1" d="M6.06,.78V.45c0-.07-.03-.14-.08-.19-.05-.05-.12-.08-.2-.08H.46c-.08,0-.15,.03-.2,.08-.05,.05-.08,.12-.08,.19v.33c0,.07,.03,.14,.08,.19,.05,.05,.12,.08,.2,.08H5.78c.08,0,.15-.03,.2-.08,.05-.05,.08-.12,.08-.19m.17-.33v.33c0,.12-.05,.23-.14,.32-.08,.08-.2,.13-.32,.13H.46c-.13,0-.24-.05-.32-.13-.08-.08-.14-.19-.14-.32V.45c0-.12,.05-.23,.14-.32,.08-.08,.2-.13,.32-.13H5.78c.12,0,.24,.05,.32,.13,.08,.08,.14,.19,.14,.32Z"/>
  <path class="cls-2" d="M4.43,4.2h0s0,.04,0,.04v1.34s.82-.61,.88-.66c.05-.03,.28-.2,.29-.22l-.4-.3-.05-.03c-.07-.05-.69-.52-.73-.54v.38Z"/>
  <path class="cls-3" d="M4.43,4.2h0s0,.04,0,.04v1.34s.82-.61,.88-.66c.05-.03,.28-.2,.29-.22l-.4-.3-.05-.03c-.07-.05-.69-.52-.73-.54v.38Z"/>
  <path class="cls-2" d="M4.43,4.2h0s0,.04,0,.04v1.34s.82-.61,.88-.66c.05-.03,.28-.2,.29-.22l-.4-.3-.05-.03c-.07-.05-.69-.52-.73-.54v.38Z"/>
  <path class="cls-1" d="M4.34,4.22c0-.17,0-.36,0-.53l.13,.06s.32,.23,.53,.39l.21,.16c.17,.12,.34,.25,.52,.38l-.04,.07s-.17,.14-.26,.21l-.13,.1c-.22,.17-.78,.59-.82,.61l-.12,.06c0-.5,0-1,0-1.5m.17-.02c.02,.4,0,.82,0,1.22,.18-.13,.51-.38,.66-.5,.1-.07,.19-.14,.29-.21l-.31-.23c-.22-.15-.43-.32-.64-.48v.2Z"/>
  <path class="cls-2" d="M6.15,2.52v.33c0,.2-.17,.36-.37,.36H.46c-.2,0-.37-.16-.37-.36v-.33c0-.2,.17-.36,.37-.36,2.85,0,2.47,0,5.32,0,.2,0,.37,.16,.37,.36"/>
  <path class="cls-1" d="M6.06,2.85v-.33c0-.07-.03-.14-.08-.19-.05-.05-.12-.08-.2-.08H.46c-.08,0-.15,.03-.2,.08-.05,.05-.08,.12-.08,.19v.33c0,.07,.03,.14,.08,.19,.05,.05,.12,.08,.2,.08H5.78c.08,0,.15-.03,.2-.08,.05-.05,.08-.12,.08-.19m.17-.33v.33c0,.12-.05,.23-.14,.32-.08,.08-.2,.13-.32,.13H.46c-.13,0-.24-.05-.32-.13-.08-.08-.14-.19-.14-.32v-.33c0-.12,.05-.23,.14-.32,.08-.08,.2-.13,.32-.13H5.78c.13,0,.24,.05,.32,.13,.08,.08,.14,.19,.14,.32Z"/>
  <path class="cls-2" d="M3.54,4.59v.33c0,.2-.09,.36-.21,.36H.3c-.12,0-.21-.16-.21-.36v-.33c0-.2,.09-.36,.21-.36,1.62,0,1.41,0,3.03,0,.12,0,.21,.16,.21,.36"/>
  <path class="cls-1" d="M3.45,4.92v-.33c0-.08-.02-.16-.05-.21-.02-.04-.05-.06-.07-.06H.3s-.05,.02-.07,.06c-.03,.05-.05,.13-.05,.21v.33c0,.08,.02,.16,.05,.21,.02,.04,.05,.06,.07,.06H3.33s.05-.02,.07-.06c.03-.05,.05-.13,.05-.21m.17-.33v.33c0,.11-.03,.22-.07,.3-.05,.09-.13,.15-.22,.15H.3c-.09,0-.17-.06-.22-.15-.05-.08-.07-.18-.07-.3v-.33c0-.11,.03-.22,.07-.3,.05-.09,.13-.15,.22-.15H3.33c.09,0,.17,.06,.22,.15,.05,.08,.07,.18,.07,.3Z"/>
</svg>