<?xml version="1.0" encoding="UTF-8"?>
<svg id="Capa_1" data-name="Capa 1" xmlns="http://www.w3.org/2000/svg" width="56.32" height="29.64" viewBox="0 0 56.32 29.64">
  <defs>
    <style>
      .cls-1 {
        fill: #919191;
        fill-rule: evenodd;
      }
    </style>
  </defs>
  <path class="cls-1" d="M2.8,0H53.2c1.54,0,2.8,1.26,2.8,2.8s-1.26,2.8-2.8,2.8H2.8C1.26,5.61,0,4.35,0,2.8S1.26,0,2.8,0"/>
  <path class="cls-1" d="M2.8,12.14H53.2c1.54,0,2.8,1.26,2.8,2.8s-1.26,2.8-2.8,2.8H2.8C1.26,17.75,0,16.49,0,14.95s1.26-2.8,2.8-2.8"/>
  <path class="cls-1" d="M2.8,24.03H53.2c1.54,0,2.8,1.26,2.8,2.8s-1.26,2.8-2.8,2.8H2.8C1.26,29.64,0,28.38,0,26.83s1.26-2.8,2.8-2.8"/>
</svg>