<?xml version="1.0" encoding="UTF-8"?>
<svg id="Capa_1" data-name="Capa 1" xmlns="http://www.w3.org/2000/svg" width="14.32" height="14.32" viewBox="0 0 14.32 14.32">
  <defs>
    <style>
      .cls-1 {
        fill: #ad1a1c;
        fill-rule: evenodd;
      }
    </style>
  </defs>
  <path class="cls-1" d="M7.16,0C3.2,0,0,3.21,0,7.16s3.2,7.16,7.16,7.16,7.16-3.21,7.16-7.16S11.11,0,7.16,0Zm.52,10.07c0,.24-.12,.44-.26,.44H3.69c-.14,0-.26-.2-.26-.44v-.41c0-.24,.12-.44,.26-.44,2,0,1.73,0,3.73,0,.14,0,.26,.2,.26,.44v.41Zm2.29,0c-.08,.06-1.05,.79-1.09,.81v-1.68s0-.02,0-.02v-.46c.06,.03,.82,.61,.9,.67l.06,.04,.49,.37s-.31,.23-.36,.28Zm.47-2.11H3.88c-.25,0-.46-.2-.46-.44v-.41c0-.24,.21-.44,.46-.44,3.51,0,3.04,0,6.55,0,.25,0,.46,.2,.46,.44v.41c0,.24-.2,.44-.46,.44Zm0-2.49H3.88c-.25,0-.46-.2-.46-.44v-.41c0-.24,.21-.44,.46-.44,3.51,0,3.04,0,6.55,0,.25,0,.46,.2,.46,.44v.41c0,.24-.2,.44-.46,.44Z"/>
</svg>