<?xml version="1.0" encoding="UTF-8"?>
<svg id="Capa_1" data-name="Capa 1" xmlns="http://www.w3.org/2000/svg" width="20.31" height="20.12" viewBox="0 0 20.31 20.12">
  <defs>
    <style>
      .cls-1 {
        fill: #4caf50;
        fill-rule: evenodd;
      }
    </style>
  </defs>
  <path class="cls-1" d="M17.81,0H2.5C1.12,0,0,1.12,0,2.5v15.12c0,1.38,1.12,2.5,2.5,2.5h15.31c1.38,0,2.5-1.12,2.5-2.5V2.5c0-1.38-1.12-2.5-2.5-2.5Zm-7.03,14.1c0,.15-.04,.29-.09,.39-.04,.07-.09,.12-.14,.12H4.9s-.1-.04-.14-.12c-.06-.1-.09-.23-.09-.39v-.62c0-.15,.04-.29,.09-.39,.04-.07,.09-.11,.14-.11h5.65s.1,.04,.14,.11c.06,.1,.09,.24,.09,.39v.62Zm1.65,1.49c0-.93-.01-1.87,0-2.8-.01-.32,0-.67,0-.99,.68,.37,1.81,1.32,2.57,1.85-.56,.61-2.06,1.65-2.58,1.94Zm3.53-5.35c0,.23-.1,.44-.25,.59-.15,.15-.37,.24-.6,.24H5.2c-.23,0-.45-.09-.6-.24-.16-.15-.25-.36-.25-.59v-.62c0-.23,.1-.44,.25-.59,.15-.15,.37-.24,.6-.24H15.11c.23,0,.45,.09,.6,.24,.16,.15,.25,.36,.25,.59v.62Zm0-3.86c0,.23-.1,.44-.25,.59-.15,.15-.37,.24-.6,.24H5.2c-.23,0-.45-.09-.6-.24-.16-.15-.25-.36-.25-.59v-.62c0-.23,.1-.44,.25-.59,.15-.15,.37-.24,.6-.24H15.11c.23,0,.45,.09,.6,.24,.16,.15,.25,.36,.25,.59v.62Z"/>
</svg>