<?xml version="1.0" encoding="UTF-8"?>
<svg id="Capa_1" data-name="Capa 1" xmlns="http://www.w3.org/2000/svg" width="20.31" height="20.12" viewBox="0 0 20.31 20.12">
  <defs>
    <style>
      .cls-1 {
        fill: #494949;
      }

      .cls-1, .cls-2 {
        fill-rule: evenodd;
      }
    </style>
  </defs>
  <path class="cls-1" d="M2.5,0h15.31C19.19,0,20.31,1.12,20.31,2.5v15.12c0,1.38-1.12,2.5-2.5,2.5H2.5c-1.38,0-2.5-1.13-2.5-2.5V2.5C0,1.12,1.12,0,2.5,0"/>
  <path class="cls-2" d="M15.8,5.77v.62c0,.37-.31,.67-.69,.67H5.2c-.38,0-.69-.3-.69-.67v-.62c0-.37,.31-.67,.69-.67H15.11c.38,0,.69,.3,.69,.67"/>
  <path d="M15.64,6.39v-.62c0-.14-.06-.26-.15-.35-.1-.09-.23-.15-.38-.15H5.2c-.15,0-.28,.06-.38,.15-.09,.09-.15,.22-.15,.36v.62c0,.14,.06,.26,.15,.35,.1,.09,.23,.15,.38,.15H15.11c.15,0,.28-.06,.38-.15,.09-.09,.15-.22,.15-.35m.32-.62v.62c0,.23-.1,.44-.25,.59-.15,.15-.37,.24-.6,.24H5.2c-.23,0-.45-.09-.6-.24-.16-.15-.25-.36-.25-.59v-.62c0-.23,.1-.44,.25-.59,.15-.15,.37-.24,.6-.24H15.11c.23,0,.45,.09,.6,.24,.16,.15,.25,.36,.25,.59Z"/>
  <path class="cls-2" d="M12.59,12.77v.03s0,.05,0,.05v.03s0,2.47,0,2.47c.06-.03,1.52-1.13,1.65-1.23,.09-.06,.52-.37,.55-.42l-.75-.56-.09-.06c-.13-.09-1.28-.97-1.36-1.01v.7Z"/>
  <path class="cls-2" d="M12.59,12.77v.03s0,.05,0,.05v.03s0,2.47,0,2.47c.06-.03,1.52-1.13,1.65-1.23,.09-.06,.52-.37,.55-.42l-.75-.56-.09-.06c-.13-.09-1.28-.97-1.36-1.01v.7Z"/>
  <path d="M12.43,12.8c-.01-.32,0-.67,0-.99l.24,.12c.06,.03,.59,.43,.98,.72l.4,.3c.33,.23,.64,.47,.96,.71l-.08,.13c-.04,.06-.32,.27-.49,.39l-.25,.18c-.41,.31-1.46,1.1-1.53,1.13l-.23,.11c0-.93-.01-1.87,0-2.8m.32-.04c.03,.74,0,1.52,0,2.27,.34-.25,.95-.71,1.24-.93,.18-.13,.36-.26,.54-.39l-.58-.44c-.4-.28-.8-.59-1.19-.89v.38Z"/>
  <path class="cls-2" d="M15.8,9.63v.62c0,.37-.31,.67-.69,.67H5.2c-.38,0-.69-.3-.69-.67v-.62c0-.37,.31-.67,.69-.67,5.31,0,4.6,0,9.91,0,.38,0,.69,.3,.69,.67"/>
  <path d="M15.64,10.25v-.62c0-.14-.06-.26-.15-.35-.1-.09-.23-.15-.38-.15H5.2c-.15,0-.28,.06-.38,.15-.09,.09-.15,.22-.15,.36v.62c0,.14,.06,.26,.15,.35,.1,.09,.23,.15,.38,.15H15.11c.15,0,.28-.06,.38-.15,.09-.09,.15-.22,.15-.36m.32-.62v.62c0,.23-.1,.44-.25,.59-.15,.15-.37,.24-.6,.24H5.2c-.23,0-.45-.09-.6-.24-.16-.15-.25-.36-.25-.59v-.62c0-.23,.1-.44,.25-.59,.15-.15,.37-.24,.6-.24H15.11c.23,0,.45,.09,.6,.24,.16,.15,.25,.36,.25,.59Z"/>
  <path class="cls-2" d="M10.95,13.49v.62c0,.37-.18,.67-.39,.67H4.9c-.22,0-.39-.3-.39-.67v-.62c0-.37,.18-.67,.39-.67,3.03,0,2.62,0,5.65,0,.22,0,.39,.3,.39,.67"/>
  <path d="M10.78,14.1v-.62c0-.15-.04-.29-.09-.39-.04-.07-.09-.12-.14-.12H4.9s-.1,.04-.14,.12c-.06,.1-.09,.23-.09,.39v.62c0,.15,.04,.29,.09,.39,.04,.07,.09,.12,.14,.12h5.65s.1-.04,.14-.12c.06-.1,.09-.23,.09-.39m.32-.62v.62c0,.21-.05,.41-.14,.55-.1,.17-.25,.28-.42,.28H4.9c-.17,0-.32-.11-.42-.28-.09-.14-.14-.34-.14-.55v-.62c0-.21,.05-.41,.14-.55,.1-.17,.25-.28,.42-.28h5.65c.17,0,.32,.11,.42,.28,.09,.15,.14,.34,.14,.55Z"/>
</svg>