<?xml version="1.0" encoding="UTF-8"?>
<svg id="Capa_1" data-name="Capa 1" xmlns="http://www.w3.org/2000/svg" width="27.24" height="24.84" viewBox="0 0 27.24 24.84">
  <defs>
    <style>
      .cls-1 {
        fill: #53ced9;
      }

      .cls-1, .cls-2 {
        fill-rule: evenodd;
      }

      .cls-3, .cls-2 {
        fill: #4caf50;
      }

      .cls-4 {
        fill: none;
        stroke: #fefefe;
        stroke-linecap: round;
        stroke-linejoin: round;
        stroke-width: .22px;
      }
    </style>
  </defs>
  <path class="cls-2" d="M26.79,1.93v1.44c0,.86-.72,1.56-1.61,1.56H2.06c-.89,0-1.61-.7-1.61-1.56V1.93c0-.86,.73-1.56,1.61-1.56,12.39,0,10.73,0,23.12,0,.89,0,1.61,.7,1.61,1.56"/>
  <path class="cls-3" d="M26.42,3.38V1.93c0-.32-.14-.62-.36-.83-.22-.22-.53-.35-.88-.35H2.06c-.34,0-.65,.13-.87,.35-.22,.21-.36,.51-.36,.83v1.44c0,.32,.14,.62,.35,.83,.22,.22,.53,.35,.88,.35H25.18c.34,0,.65-.13,.88-.35,.22-.21,.36-.51,.36-.83m.75-1.44v1.44c0,.53-.22,1.02-.59,1.37-.36,.35-.86,.56-1.4,.56H2.06c-.55,0-1.04-.22-1.4-.56-.36-.35-.59-.84-.59-1.37V1.93c0-.53,.23-1.02,.59-1.37,.36-.35,.86-.56,1.4-.56H25.18c.54,0,1.04,.22,1.4,.56,.36,.35,.59,.84,.59,1.37Z"/>
  <path class="cls-1" d="M19.3,18.25v.06s0,.11,0,.11v.07s0,5.77,0,5.77c.14-.07,3.55-2.64,3.85-2.86,.2-.15,1.21-.86,1.28-.98l-1.74-1.3-.2-.14c-.3-.21-2.98-2.26-3.17-2.35v1.63Z"/>
  <path class="cls-4" d="M19.3,18.25v.06s0,.11,0,.11v.07s0,5.77,0,5.77c.14-.07,3.55-2.64,3.85-2.86,.2-.15,1.21-.86,1.28-.98l-1.74-1.3-.2-.14c-.3-.21-2.98-2.26-3.17-2.35v1.63Z"/>
  <path class="cls-2" d="M19.3,18.25v.06s0,.11,0,.11v.07s0,5.77,0,5.77c.14-.07,3.55-2.64,3.85-2.86,.2-.15,1.21-.86,1.28-.98l-1.74-1.3-.2-.14c-.3-.21-2.98-2.26-3.17-2.35v1.63Z"/>
  <path class="cls-3" d="M18.93,18.32c-.03-.75,0-1.56,0-2.32l.55,.28c.15,.08,1.38,1,2.29,1.69l.93,.69c.76,.53,1.5,1.11,2.24,1.66l-.19,.3c-.1,.15-.75,.63-1.14,.91l-.58,.43c-.95,.72-3.41,2.57-3.56,2.64l-.54,.25c0-2.17-.03-4.36,0-6.52m.75-.09c.07,1.72,0,3.55,0,5.28,.78-.58,2.22-1.66,2.89-2.17,.41-.31,.83-.61,1.25-.92l-1.36-1.02c-.94-.65-1.86-1.38-2.78-2.07v.89Z"/>
  <path class="cls-2" d="M26.79,10.93v1.44c0,.86-.72,1.56-1.61,1.56H2.06c-.89,0-1.61-.7-1.61-1.56v-1.44c0-.86,.73-1.56,1.61-1.56,12.39,0,10.73,0,23.12,0,.89,0,1.61,.7,1.61,1.56"/>
  <path class="cls-3" d="M26.42,12.37v-1.44c0-.32-.14-.61-.36-.83-.22-.22-.53-.35-.88-.35H2.06c-.34,0-.65,.13-.87,.35-.22,.21-.36,.51-.36,.83v1.44c0,.32,.14,.61,.35,.83,.22,.22,.53,.35,.88,.35H25.18c.34,0,.65-.13,.87-.35,.22-.21,.36-.51,.36-.83m.75-1.44v1.44c0,.53-.22,1.02-.59,1.37-.36,.35-.86,.56-1.4,.56H2.06c-.55,0-1.04-.22-1.4-.56-.36-.35-.59-.84-.59-1.37v-1.44c0-.53,.23-1.02,.59-1.37,.36-.35,.86-.56,1.4-.56H25.18c.54,0,1.04,.22,1.4,.56,.36,.35,.59,.84,.59,1.37Z"/>
  <path class="cls-2" d="M15.46,19.93v1.44c0,.86-.41,1.56-.92,1.56H1.37c-.51,0-.92-.7-.92-1.56v-1.44c0-.86,.41-1.56,.92-1.56H14.54c.51,0,.92,.7,.92,1.56"/>
  <path class="cls-3" d="M15.08,21.37v-1.44c0-.36-.08-.68-.22-.91-.1-.17-.21-.27-.32-.27H1.37c-.11,0-.22,.1-.32,.27-.13,.23-.22,.55-.22,.91v1.44c0,.36,.08,.68,.22,.91,.1,.17,.21,.27,.32,.27H14.54c.11,0,.23-.1,.32-.27,.13-.23,.22-.55,.22-.91m.75-1.44v1.44c0,.5-.12,.95-.32,1.29-.23,.4-.58,.64-.97,.64H1.37c-.4,0-.74-.25-.97-.64-.2-.34-.32-.8-.32-1.29v-1.44c0-.5,.12-.95,.32-1.29,.23-.4,.58-.64,.97-.64H14.54c.4,0,.74,.25,.97,.64,.2,.34,.32,.8,.32,1.29Z"/>
</svg>