<?xml version="1.0" encoding="UTF-8"?>
<svg id="Capa_1" data-name="Capa 1" xmlns="http://www.w3.org/2000/svg" width="16.47" height="18.84" viewBox="0 0 16.47 18.84">
  <defs>
    <style>
      .cls-1, .cls-2 {
        fill: #4caf50;
      }

      .cls-2 {
        fill-rule: evenodd;
      }
    </style>
  </defs>
  <path class="cls-2" d="M7.87,.45h.74c.44,0,.8,.49,.8,1.1v15.74c0,.6-.36,1.1-.8,1.1h-.74c-.44,0-.8-.49-.8-1.1V1.55c0-.6,.36-1.1,.8-1.1"/>
  <path class="cls-1" d="M8.61,.91h-.74c-.07,0-.14,.05-.2,.13-.09,.13-.15,.31-.15,.51v15.74c0,.2,.06,.38,.15,.51,.06,.08,.13,.13,.2,.13h.74c.06,0,.14-.05,.2-.13,.09-.12,.15-.3,.15-.51V1.55c0-.2-.06-.38-.15-.51-.06-.08-.13-.13-.2-.13m-.74-.91h.74c.37,0,.7,.2,.93,.51,.2,.27,.32,.64,.32,1.04v15.74c0,.4-.12,.77-.32,1.04-.23,.32-.56,.51-.93,.51h-.74c-.37,0-.7-.2-.93-.51-.2-.27-.32-.64-.32-1.04V1.55c0-.4,.12-.77,.32-1.04,.23-.31,.56-.51,.93-.51Z"/>
  <path class="cls-2" d="M16.02,9v.85c0,.51-.43,.92-.95,.92H1.41c-.52,0-.95-.41-.95-.92v-.85c0-.51,.43-.92,.95-.92H15.07c.52,0,.95,.41,.95,.92"/>
  <path class="cls-1" d="M15.56,9.85v-.85c0-.12-.06-.24-.14-.32-.09-.09-.22-.14-.36-.14H1.41c-.14,0-.27,.06-.36,.14-.08,.08-.14,.2-.14,.32v.85c0,.12,.05,.24,.14,.32,.09,.09,.22,.14,.36,.14H15.06c.14,0,.27-.05,.36-.14,.08-.08,.14-.2,.14-.32m.91-.85v.85c0,.38-.16,.72-.42,.97-.26,.25-.61,.4-.99,.4H1.41c-.38,0-.73-.15-.99-.4-.26-.25-.42-.6-.42-.98v-.85c0-.38,.16-.72,.42-.97,.25-.25,.6-.4,.99-.4H15.07c.38,0,.73,.15,.98,.4,.26,.25,.42,.6,.42,.98Z"/>
</svg>