<?xml version="1.0" encoding="UTF-8"?>
<svg id="Capa_1" data-name="Capa 1" xmlns="http://www.w3.org/2000/svg" width="27.06" height="27" viewBox="0 0 27.06 27">
  <defs>
    <style>
      .cls-1 {
        fill: #4caf50;
        fill-rule: evenodd;
      }
    </style>
  </defs>
  <path class="cls-1" d="M13.53,0C6,0-.1,6.04-.1,13.5s6.1,13.5,13.63,13.5,13.63-6.04,13.63-13.5S21.06,0,13.53,0Zm5.3,14.7l-8.19,5.38c-.72,.47-1.54,.39-1.73-.46-.01-.05-.02-.11-.03-.14,0-.15-.01-.22-.01-.37l.05-11.81c.24-.84,1.1-.78,1.71-.37l8.19,5.53c1.19,.77,1.21,1.48,0,2.24Z"/>
</svg>