<?xml version="1.0" encoding="UTF-8"?>
<svg id="Capa_1" data-name="Capa 1" xmlns="http://www.w3.org/2000/svg" width="14.32" height="14.32" xmlns:xlink="http://www.w3.org/1999/xlink" viewBox="0 0 14.32 14.32">
  <defs>
    <style>
      .cls-1 {
        fill: none;
        stroke: url(#Degradado_sin_nombre_14);
        stroke-miterlimit: 10;
      }

      .cls-2 {
        fill: url(#Degradado_sin_nombre_24);
      }
    </style>
    <linearGradient id="Degradado_sin_nombre_24" data-name="Degradado sin nombre 24" x1="7.16" y1="0" x2="7.16" y2="14.32" gradientUnits="userSpaceOnUse">
      <stop offset="0" stop-color="#b3b3b3"/>
      <stop offset="1" stop-color="#666"/>
    </linearGradient>
    <linearGradient id="Degradado_sin_nombre_14" data-name="Degradado sin nombre 14" x1="7.45" y1="4.57" x2="7.45" y2="9.67" gradientUnits="userSpaceOnUse">
      <stop offset="0" stop-color="#b3b3b3"/>
      <stop offset="1" stop-color="#999"/>
    </linearGradient>
  </defs>
  <path class="cls-2" d="M7.16,1c1.64,0,3.19,.64,4.35,1.8,1.16,1.16,1.8,2.71,1.8,4.35s-.64,3.19-1.8,4.35c-1.16,1.16-2.71,1.8-4.35,1.8s-3.19-.64-4.35-1.8c-1.16-1.16-1.8-2.71-1.8-4.35s.64-3.19,1.8-4.35c1.16-1.16,2.71-1.8,4.35-1.8M7.16,0C5.18,0,3.39,.8,2.1,2.1,.8,3.39,0,5.18,0,7.16s.8,3.77,2.1,5.06c1.3,1.3,3.09,2.1,5.06,2.1s3.77-.8,5.06-2.1c1.3-1.3,2.1-3.09,2.1-5.06s-.8-3.77-2.1-5.06C10.92,.8,9.14,0,7.16,0h0Z"/>
  <path class="cls-1" d="M6.24,6.01c.04,.87,0,1.79,0,2.66,.39-.29,1.12-.84,1.45-1.09,.21-.16,.42-.31,.63-.46l-.69-.51c-.47-.33-.94-.7-1.4-1.04v.45Z"/>
</svg>